<?xml version="1.0" encoding="utf-8"?>
<!-- Generator: Adobe Illustrator 22.0.1, SVG Export Plug-In . SVG Version: 6.00 Build 0)  -->
<svg version="1.1" id="Слой_1" xmlns="http://www.w3.org/2000/svg" xmlns:xlink="http://www.w3.org/1999/xlink" x="0px" y="0px"
	 viewBox="0 0 32 35" style="enable-background:new 0 0 32 35;" xml:space="preserve">
<style type="text/css">
	.st0{fill:#FFFFFF;}
</style>
<path class="st0" d="M27.1,35H4.9c-1.6,0-2.9-1.2-3-2.8L0.3,11C0.2,10.2,0.5,9.4,1,8.8c0.6-0.6,1.4-1,2.2-1h25.5
	c0.8,0,1.6,0.4,2.2,1c0.6,0.6,0.9,1.4,0.8,2.3l-1.7,21.2C30,33.8,28.6,35,27.1,35z M1.3,11l1.7,21.2c0.1,1,1,1.8,2,1.8h22.2
	c1,0,1.9-0.8,2-1.8L30.8,11c0-0.6-0.1-1.1-0.5-1.5c-0.4-0.4-0.9-0.6-1.5-0.6H3.2C2.7,8.8,2.2,9,1.8,9.4C1.4,9.9,1.2,10.4,1.3,11
	L1.3,11z"/>
<path class="st0" d="M24.5,18.5l-1,0c0-0.1,0.2-10.9-4-15.2c-1.1-1.1-2.5-1.7-4-1.7c-1.6,0-2.9,0.6-4,1.7c-4.2,4.3-4,15.1-4,15.2
	l-1,0c0-0.5-0.2-11.3,4.3-16c1.3-1.3,2.9-2,4.7-2c1.8,0,3.4,0.7,4.7,2C24.7,7.2,24.5,18,24.5,18.5z"/>
</svg>
