<?xml version="1.0" encoding="utf-8"?>
<!-- Generator: Adobe Illustrator 22.0.1, SVG Export Plug-In . SVG Version: 6.00 Build 0)  -->
<svg version="1.1" id="Слой_1" xmlns="http://www.w3.org/2000/svg" xmlns:xlink="http://www.w3.org/1999/xlink" x="0px" y="0px"
	 viewBox="0 0 16 17" style="enable-background:new 0 0 16 17;" xml:space="preserve">
<style type="text/css">
	.st0{fill:#333333;}
</style>
<path class="st0" d="M11.7,17H4.3c-1.6,0-2.9-1.2-3-2.8L0.8,7.6C0.7,6.8,1,5.9,1.5,5.3c0.6-0.6,1.4-1,2.2-1h8.5c0.8,0,1.6,0.4,2.2,1
	c0.6,0.6,0.9,1.4,0.8,2.3l-0.5,6.6C14.6,15.8,13.3,17,11.7,17z M3.7,5.4C3.2,5.4,2.7,5.6,2.3,6C1.9,6.4,1.7,7,1.8,7.5l0.5,6.6
	c0.1,1,1,1.8,2,1.8h7.5c1,0,1.9-0.8,2-1.8l0.5-6.6c0-0.6-0.1-1.1-0.5-1.5s-0.9-0.6-1.5-0.6H3.7z"/>
<path class="st0" d="M12.5,9.5l-1,0c0-0.1,0.1-5.3-1.8-7.3C9.2,1.7,8.6,1.5,8,1.5S6.8,1.7,6.3,2.2c-1.9,2-1.8,7.2-1.8,7.3l-1,0
	c0-0.2-0.1-5.7,2.1-8c0.7-0.7,1.5-1,2.4-1s1.7,0.3,2.4,1C12.6,3.8,12.5,9.3,12.5,9.5z"/>
</svg>
