<?xml version="1.0" encoding="utf-8"?>
<!-- Generator: Adobe Illustrator 22.0.1, SVG Export Plug-In . SVG Version: 6.00 Build 0)  -->
<svg version="1.1" id="Слой_1" xmlns="http://www.w3.org/2000/svg" xmlns:xlink="http://www.w3.org/1999/xlink" x="0px" y="0px"
	 viewBox="0 0 16 16" style="enable-background:new 0 0 16 16;" xml:space="preserve">
<style type="text/css">
	.st0{fill:#333333;}
</style>
<path class="st0" d="M8,15.5c-4.1,0-7.5-3.4-7.5-7.5c0-4.1,3.4-7.5,7.5-7.5s7.5,3.4,7.5,7.5C15.5,12.1,12.1,15.5,8,15.5z M8,1.5
	C4.4,1.5,1.5,4.4,1.5,8c0,3.6,2.9,6.5,6.5,6.5s6.5-2.9,6.5-6.5C14.5,4.4,11.6,1.5,8,1.5z"/>
<path class="st0" d="M12,6.5c-0.1,0-0.4,0-2.9-1.5H6.9C4.4,6.5,4.1,6.5,4,6.5V6L3.9,5.5c0.2-0.1,1.5-0.8,2.6-1.4L6.6,4h2.8l0.1,0.1
	c1.1,0.6,2.4,1.4,2.6,1.4L12,6.5z"/>
<polygon class="st0" points="6.3,11.9 5.3,11.9 5.3,7.9 3.5,7.6 3.5,5.4 4.5,5.4 4.5,6.8 6.3,7.1 "/>
<polygon class="st0" points="9.7,11.9 9.7,7.1 11.5,6.8 11.5,5.4 12.5,5.4 12.5,7.6 10.7,7.9 10.7,11.9 "/>
<rect x="5.5" y="10.9" class="st0" width="5" height="1"/>
<path class="st0" d="M8,6.8c-1.3,0-1.9-1.9-2-2.2l1-0.3c0.2,0.6,0.6,1.4,1,1.4c0.4,0,0.9-0.8,1-1.4l1,0.3C9.9,4.9,9.3,6.8,8,6.8z"/>
</svg>
