<?xml version="1.0" encoding="utf-8"?>
<!-- Generator: Adobe Illustrator 22.0.1, SVG Export Plug-In . SVG Version: 6.00 Build 0)  -->
<svg version="1.1" id="Слой_1" xmlns="http://www.w3.org/2000/svg" xmlns:xlink="http://www.w3.org/1999/xlink" x="0px" y="0px"
	 viewBox="0 0 16 16" style="enable-background:new 0 0 16 16;" xml:space="preserve">
<style type="text/css">
	.st0{fill:#FFFFFF;}
</style>
<path class="st0" d="M12,16H2c-1.1,0-2-0.9-2-2V4c0-1.1,0.9-2,2-2h10c1.1,0,2,0.9,2,2v10C14,15.1,13.1,16,12,16z M2,3
	C1.4,3,1,3.4,1,4v10c0,0.6,0.4,1,1,1h10c0.6,0,1-0.4,1-1V4c0-0.6-0.4-1-1-1H2z"/>
<path class="st0" d="M13.9,14c-0.2,0-0.3,0-0.5-0.1l0.2-1c0.3,0.1,0.7,0,1-0.2c0.3-0.2,0.4-0.5,0.4-0.9V2.5C15,1.7,14.3,1,13.5,1
	H4.3C3.5,1,2.8,1.7,2.8,2.5v0.1h-1V2.5C1.8,1.1,3,0,4.3,0h9.2C14.9,0,16,1.1,16,2.5v9.4c0,0.7-0.3,1.3-0.8,1.7
	C14.8,13.9,14.4,14,13.9,14z"/>
</svg>
