<?xml version="1.0" encoding="utf-8"?>
<!-- Generator: Adobe Illustrator 22.0.1, SVG Export Plug-In . SVG Version: 6.00 Build 0)  -->
<svg version="1.1" id="Слой_1" xmlns="http://www.w3.org/2000/svg" xmlns:xlink="http://www.w3.org/1999/xlink" x="0px" y="0px"
	 viewBox="0 0 16 16" style="enable-background:new 0 0 16 16;" xml:space="preserve">
<style type="text/css">
	.st0{fill:#FFFFFF;}
</style>
<path class="st0" d="M8.1,15.9C8,15.8,5.7,13.6,1.4,7.9C0,6.1-0.3,4.1,0.7,2.4c1-1.7,3-2.6,4.8-2.3C7,0.3,8,1.4,8.4,3l-1,0.2
	c-0.3-1.6-1.3-2-2-2.2C4,0.8,2.4,1.6,1.6,2.9C0.8,4.2,1,5.8,2.2,7.3c4.3,5.6,6.6,7.8,6.6,7.8L8.1,15.9z"/>
<path class="st0" d="M8,15.9l-0.7-0.7c0,0,2.4-2.3,6.6-7.8c1.1-1.5,1.3-3,0.5-4.3c-0.8-1.3-2.6-2.2-4.1-2C9.7,1.2,8.7,1.6,8.4,3.2
	L7.4,3c0.3-1.6,1.4-2.7,2.9-2.9c1.9-0.3,4.1,0.7,5.1,2.4c0.6,1,1.3,2.9-0.6,5.4C10.5,13.6,8.1,15.8,8,15.9z"/>
<path class="st0" d="M7.4,2.7l1,0l0,0.5h-1V2.7z"/>
</svg>
