<?xml version="1.0" encoding="utf-8"?>
<!-- Generator: Adobe Illustrator 22.0.1, SVG Export Plug-In . SVG Version: 6.00 Build 0)  -->
<svg version="1.1" id="Слой_1" xmlns="http://www.w3.org/2000/svg" xmlns:xlink="http://www.w3.org/1999/xlink" x="0px" y="0px"
	 viewBox="0 0 16 16" style="enable-background:new 0 0 16 16;" xml:space="preserve">
<style type="text/css">
	.st0{fill:#333333;}
</style>
<path class="st0" d="M8.5,8.4c-2.3,0-4.2-1.9-4.2-4.2C4.3,1.9,6.1,0,8.5,0s4.2,1.9,4.2,4.2C12.6,6.5,10.8,8.4,8.5,8.4z M8.5,1
	C6.7,1,5.3,2.4,5.3,4.2c0,1.8,1.4,3.2,3.2,3.2c1.8,0,3.2-1.4,3.2-3.2C11.6,2.4,10.2,1,8.5,1z"/>
<rect x="0.5" y="14.8" class="st0" width="15" height="1"/>
<path class="st0" d="M16,15.8h-1c0-3.2-4-5.3-6.8-5.3c-2-0.1-4.3,0.9-5.7,2.3C1.8,13.4,1,14.5,1,15.8H0c0-1.4,0.6-2.7,1.8-3.8
	C3.4,10.5,6,9.5,8.2,9.5C11.9,9.6,16,12.2,16,15.8z"/>
</svg>
