<?xml version="1.0" encoding="utf-8"?>
<!-- Generator: Adobe Illustrator 22.0.1, SVG Export Plug-In . SVG Version: 6.00 Build 0)  -->
<svg version="1.1" id="Слой_1" xmlns="http://www.w3.org/2000/svg" xmlns:xlink="http://www.w3.org/1999/xlink" x="0px" y="0px"
	 viewBox="0 0 10 10" style="enable-background:new 0 0 10 10;" xml:space="preserve">
<style type="text/css">
	.st0{fill:#333333;}
</style>
<path class="st0" d="M5,2.6l0.5,1.1l0.2,0.6l0.6,0.1l1.2,0.1L6.6,5.2L6.2,5.6l0.1,0.6l0.3,1.2L5.5,6.8L5,6.5L4.5,6.8L3.4,7.4
	l0.3-1.2l0.1-0.6L3.4,5.2L2.4,4.4l1.2-0.1l0.6,0l0.2-0.6L5,2.6z M5,0L3.6,3.3L0,3.6L2.7,6L1.9,9.5L5,7.6l3.1,1.9L7.3,6L10,3.6
	L6.4,3.3L5,0z"/>
</svg>
