<?xml version="1.0" encoding="utf-8"?>
<!-- Generator: Adobe Illustrator 22.0.1, SVG Export Plug-In . SVG Version: 6.00 Build 0)  -->
<svg version="1.1" id="Слой_1" xmlns="http://www.w3.org/2000/svg" xmlns:xlink="http://www.w3.org/1999/xlink" x="0px" y="0px"
	 viewBox="0 0 18 18" style="enable-background:new 0 0 18 18;" xml:space="preserve">
<style type="text/css">
	.st0{fill:#FFFFFF;}
	.st1{fill:#333333;}
</style>
<g>
	<circle class="st0" cx="9" cy="9" r="7"/>
	<path class="st1" d="M9,16.5c-4.1,0-7.5-3.4-7.5-7.5c0-4.1,3.4-7.5,7.5-7.5s7.5,3.4,7.5,7.5C16.5,13.1,13.1,16.5,9,16.5z M9,2.5
		C5.4,2.5,2.5,5.4,2.5,9c0,3.6,2.9,6.5,6.5,6.5s6.5-2.9,6.5-6.5C15.5,5.4,12.6,2.5,9,2.5z"/>
</g>
<polygon class="st1" points="12.2,12.4 8.1,10 8.1,4.5 9.1,4.5 9.1,9.4 12.8,11.6 "/>
</svg>
